<?xml version="1.0" encoding="utf-8"?>
<!-- Generator: Adobe Illustrator 16.0.4, SVG Export Plug-In . SVG Version: 6.00 Build 0)  -->
<!DOCTYPE svg PUBLIC "-//W3C//DTD SVG 1.1//EN" "http://www.w3.org/Graphics/SVG/1.1/DTD/svg11.dtd">
<svg version="1.1" id="Layer_1" xmlns="http://www.w3.org/2000/svg" xmlns:xlink="http://www.w3.org/1999/xlink" x="0px" y="0px"
	 width="76.08px" height="48.335px" viewBox="0 0 76.08 48.335" enable-background="new 0 0 76.08 48.335" xml:space="preserve">
<g>
	<g>
		<g>
			<g>
				<defs>
					<rect id="SVGID_1_" y="0.001" width="76.08" height="48.334"/>
				</defs>
				<clipPath id="SVGID_2_">
					<use xlink:href="#SVGID_1_"  overflow="visible"/>
				</clipPath>
				<g clip-path="url(#SVGID_2_)">
					<g>
						<g>
							<defs>
								<rect id="SVGID_3_" y="0.001" width="76.08" height="48.334"/>
							</defs>
							<clipPath id="SVGID_4_">
								<use xlink:href="#SVGID_3_"  overflow="visible"/>
							</clipPath>
							<path clip-path="url(#SVGID_4_)" fill="#19AADB" d="M52.389,14.531c1.467,3.54,6.642,3.54,8.105,0l0.08-0.195
								c0.359-0.994,0.365-2.114-0.07-3.17l-4.064-9.81l-4.063,9.81c-0.437,1.056-0.43,2.181-0.069,3.176L52.389,14.531z"/>
						</g>
						<g>
							<g>
								<defs>
									<rect id="SVGID_5_" y="0.001" width="76.08" height="48.334"/>
								</defs>
								<clipPath id="SVGID_6_">
									<use xlink:href="#SVGID_5_"  overflow="visible"/>
								</clipPath>
								<g clip-path="url(#SVGID_6_)">
									<g>
										<g>
											<defs>
												<path id="SVGID_7_" d="M5.08,16.537c-2.23,0.924-3.326,3.561-2.4,5.789l8.465,20.436
													c1.461,3.621,6.771,3.621,8.226-0.004l4.37-10.557l4.311,10.41c1.385,3.82,6.961,3.82,8.34-0.005l3.854-9.3l2.051-4.891
													l1.4-3.34c-0.011-2.551-2.087-4.615-4.636-4.615c-1.865,0-3.465,1.1-4.201,2.685l-0.145,0.351l-2.49,6.014
													l-4.379-10.574c-1.48-3.575-6.721-3.575-8.201,0L15.26,29.52l-4.385-10.585c-0.7-1.689-2.386-2.73-4.131-2.73
													C6.186,16.207,5.619,16.312,5.08,16.537"/>
											</defs>
											<clipPath id="SVGID_8_">
												<use xlink:href="#SVGID_7_"  overflow="visible"/>
											</clipPath>
											
												<linearGradient id="SVGID_9_" gradientUnits="userSpaceOnUse" x1="-662.626" y1="-48.0229" x2="-662.126" y2="-48.0229" gradientTransform="matrix(76.3578 27.792 27.792 -76.3578 51932.5078 14771.8711)">
												<stop  offset="0" style="stop-color:#D4202A"/>
												<stop  offset="0.2349" style="stop-color:#D4202A"/>
												<stop  offset="1" style="stop-color:#F68838"/>
											</linearGradient>
											<polygon clip-path="url(#SVGID_8_)" fill="url(#SVGID_9_)" points="6.664,1.88 53.686,18.998 38.789,59.912 
												-8.23,42.802 											"/>
										</g>
										<g>
											<g>
												<defs>
													<rect id="SVGID_10_" y="0.001" width="76.08" height="48.334"/>
												</defs>
												<clipPath id="SVGID_11_">
													<use xlink:href="#SVGID_10_"  overflow="visible"/>
												</clipPath>
												<g clip-path="url(#SVGID_11_)">
													<g>
														<g>
															<defs>
																<path id="SVGID_12_" d="M35.561,21.451l-0.182,0.43l-0.52,1.261c0.74-1.585,2.34-2.685,4.199-2.685
																	c2.557,0,4.625,2.064,4.637,4.614l0.004-0.01v7.17c0,6.97,5.6,12.91,12.564,13.29
																	c6.92,0.38,13.131-4.835,13.94-11.715c0.035-0.307,0.06-0.61,0.069-0.915c-0.284,4.64-4.137,8.313-8.852,8.313
																	c-4.898,0-8.869-3.97-8.869-8.869c0-0.08,0.006-0.16,0.006-0.239v-7c0-3.976-2.746-7.565-6.592-8.595
																	c-0.744-0.201-1.5-0.295-2.25-0.295C40.295,16.207,37.016,18.222,35.561,21.451"/>
															</defs>
															<clipPath id="SVGID_13_">
																<use xlink:href="#SVGID_12_"  overflow="visible"/>
															</clipPath>
															
																<linearGradient id="SVGID_14_" gradientUnits="userSpaceOnUse" x1="-664.1523" y1="-51.9399" x2="-663.6523" y2="-51.9399" gradientTransform="matrix(70.8409 0 0 -70.8409 47084.0234 -3648.4146)">
																<stop  offset="0" style="stop-color:#FDB930"/>
																<stop  offset="0.4257" style="stop-color:#FDB930"/>
																<stop  offset="0.869" style="stop-color:#85C441"/>
																<stop  offset="1" style="stop-color:#85C441"/>
															</linearGradient>
															<rect x="34.859" y="16.207" clip-path="url(#SVGID_13_)" fill="url(#SVGID_14_)" width="35.42" height="29.695"/>
														</g>
														<g>
															<g>
																<defs>
																	<rect id="SVGID_15_" y="0.001" width="76.08" height="48.334"/>
																</defs>
																<clipPath id="SVGID_16_">
																	<use xlink:href="#SVGID_15_"  overflow="visible"/>
																</clipPath>
																<g clip-path="url(#SVGID_16_)">
																	<g>
																		<g>
																			<defs>
																				<path id="SVGID_17_" d="M65.859,16.196c-2.445,0-4.426,1.985-4.426,4.431v2.84v8.77
																					c0,2.415-2.015,4.432-4.435,4.432s-4.431-2.017-4.431-4.432v-0.135c-0.006,0.08-0.006,0.16-0.006,0.24
																					c0,4.898,3.972,8.869,8.871,8.869c4.709,0,8.564-3.676,8.851-8.314c0.01-0.2,0.014-0.404,0.021-0.604
																					c0-0.017,0-0.031,0-0.045V20.63c0-2.444-1.984-4.43-4.427-4.43C65.869,16.196,65.865,16.196,65.859,16.196"/>
																			</defs>
																			<clipPath id="SVGID_18_">
																				<use xlink:href="#SVGID_17_"  overflow="visible"/>
																			</clipPath>
																			
																				<linearGradient id="SVGID_19_" gradientUnits="userSpaceOnUse" x1="-683.7012" y1="-54.0273" x2="-683.2012" y2="-54.0273" gradientTransform="matrix(0 -50.0218 -50.0218 0 -2641.0693 -34158.7383)">
																				<stop  offset="0" style="stop-color:#19AADB"/>
																				<stop  offset="0.9949" style="stop-color:#1756A7"/>
																				<stop  offset="1" style="stop-color:#1756A7"/>
																			</linearGradient>
																			
																				<rect x="52.561" y="16.196" clip-path="url(#SVGID_18_)" fill="url(#SVGID_19_)" width="17.734" height="25.011"/>
																		</g>
																		<g>
																			<g>
																				<defs>
																					<rect id="SVGID_20_" y="0.001" width="76.08" height="48.334"/>
																				</defs>
																				<clipPath id="SVGID_21_">
																					<use xlink:href="#SVGID_20_"  overflow="visible"/>
																				</clipPath>
																				<g clip-path="url(#SVGID_21_)">
																					<g>
																						<g>
																							<defs>
																								<rect id="SVGID_22_" y="0.001" width="76.08" height="48.334"/>
																							</defs>
																							<clipPath id="SVGID_23_">
																								<use xlink:href="#SVGID_22_"  overflow="visible"/>
																							</clipPath>
																							<g clip-path="url(#SVGID_23_)">
																								<g>
																									<g>
																										<g>
																											<defs>
																												<rect id="SVGID_24_" x="32.375" y="20.466" width="11.32" height="8.681"/>
																											</defs>
																											<clipPath id="SVGID_25_">
																												<use xlink:href="#SVGID_24_"  overflow="visible"/>
																											</clipPath>
																										</g>
																									</g>
																								</g>
																							</g>
																						</g>
																					</g>
																				</g>
																			</g>
																		</g>
																	</g>
																</g>
															</g>
														</g>
													</g>
												</g>
											</g>
										</g>
									</g>
								</g>
							</g>
						</g>
					</g>
				</g>
			</g>
		</g>
	</g>
	<g>
		<defs>
			<path id="SVGID_26_" d="M43.693,25.082c-0.01-2.551-2.08-4.615-4.635-4.615c-1.865,0-3.465,1.1-4.2,2.686l-0.146,0.35
				l-2.334,5.641h9.614l0.306-0.721L43.693,25.082z"/>
		</defs>
		<clipPath id="SVGID_27_">
			<use xlink:href="#SVGID_26_"  overflow="visible"/>
		</clipPath>
		<g opacity="0.2" clip-path="url(#SVGID_27_)" enable-background="new    ">
			<g>
				<g>
					
						<linearGradient id="SVGID_28_" gradientUnits="userSpaceOnUse" x1="-645.4961" y1="0.106" x2="-644.9963" y2="0.106" gradientTransform="matrix(-4.6193 15.3542 15.3542 4.6193 -2943.9888 9930.9414)">
						<stop  offset="0" style="stop-color:#000000"/>
						<stop  offset="0.8713" style="stop-color:#000000;stop-opacity:0"/>
						<stop  offset="1" style="stop-color:#000000;stop-opacity:0"/>
					</linearGradient>
					<polygon fill="url(#SVGID_28_)" points="46.088,21.187 42.754,32.271 29.979,28.427 33.309,17.347 					"/>
				</g>
			</g>
		</g>
	</g>
</g>
</svg>
