<?xml version="1.0" encoding="utf-8"?>
<!-- Generator: Adobe Illustrator 16.0.4, SVG Export Plug-In . SVG Version: 6.00 Build 0)  -->
<!DOCTYPE svg PUBLIC "-//W3C//DTD SVG 1.1//EN" "http://www.w3.org/Graphics/SVG/1.1/DTD/svg11.dtd">
<svg version="1.1" id="Layer_1" xmlns="http://www.w3.org/2000/svg" xmlns:xlink="http://www.w3.org/1999/xlink" x="0px" y="0px"
	 width="76.082px" height="48.335px" viewBox="0 0 76.082 48.335" enable-background="new 0 0 76.082 48.335" xml:space="preserve">
<g>
	<g>
		<g>
			<g>
				<g>
					<g>
						<defs>
							<rect id="SVGID_1_" x="0.001" width="76.081" height="48.334"/>
						</defs>
						<clipPath id="SVGID_2_">
							<use xlink:href="#SVGID_1_"  overflow="visible"/>
						</clipPath>
						<g clip-path="url(#SVGID_2_)">
							<g>
								<g>
									<g>
										<g>
											<defs>
												<rect id="SVGID_3_" x="0.001" width="76.081" height="48.334"/>
											</defs>
											<clipPath id="SVGID_4_">
												<use xlink:href="#SVGID_3_"  overflow="visible"/>
											</clipPath>
											<path clip-path="url(#SVGID_4_)" fill="#969696" d="M52.39,14.53c1.467,3.54,6.642,3.54,8.105,0l0.08-0.195
												c0.359-0.994,0.365-2.114-0.07-3.17l-4.064-9.81l-4.065,9.81c-0.435,1.056-0.429,2.181-0.069,3.176L52.39,14.53z"/>
										</g>
										<g>
											<g>
												<g>
													<g>
														<defs>
															<rect id="SVGID_5_" x="0.001" width="76.081" height="48.334"/>
														</defs>
														<clipPath id="SVGID_6_">
															<use xlink:href="#SVGID_5_"  overflow="visible"/>
														</clipPath>
														<g clip-path="url(#SVGID_6_)">
															<g>
																<g>
																	<g>
																		<g>
																			<defs>
																				<path id="SVGID_7_" d="M5.081,16.536c-2.23,0.924-3.326,3.561-2.4,5.789l8.465,20.436
																					c1.461,3.621,6.771,3.621,8.226-0.004l4.37-10.557l4.311,10.41c1.385,3.82,6.961,3.82,8.34-0.005l3.854-9.3
																					l2.051-4.891l1.399-3.34c-0.01-2.552-2.086-4.615-4.635-4.615c-1.865,0-3.465,1.1-4.201,2.685l-0.145,0.351
																					l-2.49,6.014l-4.379-10.574c-1.48-3.575-6.721-3.575-8.201,0l-4.385,10.585l-4.385-10.585
																					c-0.7-1.689-2.386-2.73-4.131-2.73C6.187,16.206,5.62,16.311,5.081,16.536"/>
																			</defs>
																			<clipPath id="SVGID_8_">
																				<use xlink:href="#SVGID_7_"  overflow="visible"/>
																			</clipPath>
																			
																				<linearGradient id="SVGID_9_" gradientUnits="userSpaceOnUse" x1="-1502.0479" y1="-51.2729" x2="-1501.5479" y2="-51.2729" gradientTransform="matrix(76.3578 27.792 27.792 -76.3578 116119.25 37852.9062)">
																				<stop  offset="0" style="stop-color:#575757"/>
																				<stop  offset="0.2349" style="stop-color:#575757"/>
																				<stop  offset="1" style="stop-color:#A0A0A0"/>
																			</linearGradient>
																			<polygon clip-path="url(#SVGID_8_)" fill="url(#SVGID_9_)" points="6.665,1.879 53.687,18.997 38.79,59.911 
																				-8.229,42.801 																			"/>
																		</g>
																		<g>
																			<g>
																				<g>
																					<g>
																						<defs>
																							<rect id="SVGID_10_" x="0.001" width="76.081" height="48.334"/>
																						</defs>
																						<clipPath id="SVGID_11_">
																							<use xlink:href="#SVGID_10_"  overflow="visible"/>
																						</clipPath>
																						<g clip-path="url(#SVGID_11_)">
																							<g>
																								<g>
																									<g>
																										<g>
																											<defs>
																												<path id="SVGID_12_" d="M35.562,21.45l-0.182,0.43l-0.52,1.261c0.74-1.585,2.34-2.685,4.199-2.685
																													c2.557,0,4.625,2.064,4.637,4.614l0.004-0.011v7.17c0,6.969,5.6,12.909,12.564,13.29
																													c6.922,0.38,13.131-4.835,13.94-11.716c0.035-0.305,0.06-0.61,0.069-0.915
																													c-0.282,4.64-4.135,8.315-8.85,8.315c-4.9,0-8.869-3.971-8.869-8.871c0-0.08,0.006-0.158,0.006-0.238
																													v-7c0-3.975-2.746-7.564-6.592-8.596c-0.744-0.199-1.5-0.295-2.25-0.295
																													C40.296,16.206,37.017,18.221,35.562,21.45"/>
																											</defs>
																											<clipPath id="SVGID_13_">
																												<use xlink:href="#SVGID_12_"  overflow="visible"/>
																											</clipPath>
																											
																												<linearGradient id="SVGID_14_" gradientUnits="userSpaceOnUse" x1="-1504.103" y1="-59.1997" x2="-1503.603" y2="-59.1997" gradientTransform="matrix(70.8409 0 0 -70.8409 106586.8906 -4162.7271)">
																												<stop  offset="0" style="stop-color:#BEBEBE"/>
																												<stop  offset="0.4257" style="stop-color:#BEBEBE"/>
																												<stop  offset="0.869" style="stop-color:#A3A3A3"/>
																												<stop  offset="1" style="stop-color:#A3A3A3"/>
																											</linearGradient>
																											
																												<rect x="34.86" y="16.206" clip-path="url(#SVGID_13_)" fill="url(#SVGID_14_)" width="35.42" height="29.695"/>
																										</g>
																									</g>
																								</g>
																							</g>
																						</g>
																					</g>
																				</g>
																			</g>
																		</g>
																	</g>
																	<path fill="none" d="M43.7,25.081c-0.01-2.551-2.08-4.615-4.635-4.615c-1.865,0-3.465,1.101-4.2,2.686L34.72,23.5
																		l-2.335,5.641H42l0.306-0.721L43.7,25.081z"/>
																</g>
															</g>
														</g>
													</g>
												</g>
											</g>
										</g>
									</g>
								</g>
								<rect x="0.001" fill="none" width="76.081" height="48.334"/>
							</g>
						</g>
					</g>
				</g>
			</g>
		</g>
	</g>
	<rect x="0.001" fill="none" width="76.081" height="48.334"/>
	<g>
		<defs>
			<path id="SVGID_15_" d="M65.843,16.215c-2.445,0-4.426,1.985-4.426,4.431v2.84v8.77c0,2.414-2.015,4.432-4.435,4.432
				s-4.431-2.018-4.431-4.432v-0.135c-0.006,0.08-0.006,0.16-0.006,0.24c0,4.898,3.972,8.869,8.871,8.869
				c4.709,0,8.564-3.676,8.851-8.314c0.01-0.201,0.014-0.404,0.021-0.604c0-0.018,0-0.031,0-0.045V20.65
				c0-2.444-1.984-4.43-4.427-4.43C65.853,16.215,65.849,16.215,65.843,16.215"/>
		</defs>
		<clipPath id="SVGID_16_">
			<use xlink:href="#SVGID_15_"  overflow="visible"/>
		</clipPath>
		
			<linearGradient id="SVGID_17_" gradientUnits="userSpaceOnUse" x1="-683.7007" y1="-54.0273" x2="-683.2007" y2="-54.0273" gradientTransform="matrix(0 -50.0218 -50.0218 0 -2641.0684 -34158.6875)">
			<stop  offset="0" style="stop-color:#DBDBDB"/>
			<stop  offset="0.9949" style="stop-color:#A7A7A7"/>
		</linearGradient>
		<rect x="52.55" y="16.217" clip-path="url(#SVGID_16_)" fill="url(#SVGID_17_)" width="17.734" height="25.011"/>
	</g>
</g>
</svg>
